# xmcd
#
# Track frame offsets:
#	150
#	15812
#	20665
#	37292
#	47022
#	51452
#	59195
#	65882
#	72257
#	75750
#	82267
#	94450
#	99630
#	108705
#	123662
#	135917
#	150435
#	169190
#	176177
#	197790
#
# Disc length: 2713 seconds
#
# Revision: 4
# Processed by: cddbd v1.5.2PL0 Copyright (c) Steve Scherf et al.
# Submitted via: EasyCDDAExtractor 16.1.0.1
#
DISCID=260a9714
DTITLE=Banda do Corpo de Bombeiros - Hinos de Paises
DYEAR=1900
DGENRE=Other
TTITLE0=Brasil
TTITLE1=Alemanha
TTITLE2=Argentina
TTITLE3=Chile
TTITLE4=Cuba
TTITLE5=Espanha
TTITLE6=Estados Unidos
TTITLE7=France
TTITLE8=Inglaterra
TTITLE9=Israel
TTITLE10=Italia
TTITLE11=Japan
TTITLE12=Mexico
TTITLE13=Paraguai
TTITLE14=Peru
TTITLE15=Portugal
TTITLE16=Romenia
TTITLE17=Russia
TTITLE18=Uruguai
TTITLE19=Venezuela
EXTD=ID3G:  12
EXTT0=
EXTT1=
EXTT2=
EXTT3=
EXTT4=
EXTT5=
EXTT6=
EXTT7=
EXTT8=
EXTT9=
EXTT10=
EXTT11=
EXTT12=
EXTT13=
EXTT14=
EXTT15=
EXTT16=
EXTT17=
EXTT18=
EXTT19=
PLAYORDER=
